<?xml version="1.0" ?><svg data-name="레이어 1" id="레이어_1" viewBox="0 0 40 40" xmlns="http://www.w3.org/2000/svg"><path d="M34,9.51H27.85a3.72,3.72,0,0,0,.87-4.6,3.49,3.49,0,0,0-2.14-1.72,3.27,3.27,0,0,0-2.6.39,11.93,11.93,0,0,0-4,4.78,11.88,11.88,0,0,0-4-4.78,3.24,3.24,0,0,0-2.59-.39,3.4,3.4,0,0,0-2.14,1.72,3.72,3.72,0,0,0,.87,4.6h-6a2.6,2.6,0,0,0-2.6,2.6v6.44a2.6,2.6,0,0,0,2,2.51V34.32a2.6,2.6,0,0,0,2.6,2.6h23a3.44,3.44,0,0,0,3.44-3.44V21.06a2.6,2.6,0,0,0,2-2.51V12.11A2.61,2.61,0,0,0,34,9.51ZM17.73,19.39V11.25l.68,0c.39,0,.72,0,1,0H20.6c.27,0,.6,0,1,0l.84,0v8.15ZM24.88,5h0a1.62,1.62,0,0,1,1.25-.19,1.71,1.71,0,0,1,1.08.88,2,2,0,0,1-.64,2.61,9.1,9.1,0,0,1-4.21,1.17h-1A10.81,10.81,0,0,1,24.88,5ZM13.43,8.34a2,2,0,0,1-.64-2.61,1.72,1.72,0,0,1,1.07-.88,2,2,0,0,1,.41,0,1.6,1.6,0,0,1,.84.24,10.65,10.65,0,0,1,3.53,4.47h-1A9.17,9.17,0,0,1,13.43,8.34ZM5.3,12.11a.87.87,0,0,1,.88-.87H16v8.15H6a.87.87,0,0,1-.72-.84ZM8.14,35.2a.87.87,0,0,1-.88-.88V21.15H16L16,35.2Zm9.59,0,0-14.05h4.7l0,14.05Zm13.45,0h-7l0-14.05H32.9V33.48A1.72,1.72,0,0,1,31.18,35.2Zm3.68-16.65a.87.87,0,0,1-.72.84h-10V11.24H34a.88.88,0,0,1,.88.87Z"/></svg>